<?xml version="1.0" standalone="no"?><!DOCTYPE svg PUBLIC "-//W3C//DTD SVG 1.1//EN" "http://www.w3.org/Graphics/SVG/1.1/DTD/svg11.dtd"><svg t="1602831635756" class="icon" viewBox="0 0 1024 1024" version="1.1" xmlns="http://www.w3.org/2000/svg" p-id="1187" xmlns:xlink="http://www.w3.org/1999/xlink" width="200" height="200"><defs><style type="text/css"></style></defs><path d="M866.461538 787.692308a19.692308 19.692308 0 0 1 3.544616 39.069538L866.461538 827.076923H354.461538a19.692308 19.692308 0 0 1-3.544615-39.069538L354.461538 787.692308h512zM236.307692 787.692308a19.692308 19.692308 0 0 1 3.544616 39.069538L236.307692 827.076923H157.538462a19.692308 19.692308 0 0 1-3.544616-39.069538L157.538462 787.692308h78.76923z m630.153846-295.384616a19.692308 19.692308 0 0 1 3.544616 39.069539L866.461538 531.692308H354.461538a19.692308 19.692308 0 0 1-3.544615-39.069539L354.461538 492.307692h512z m-630.153846 0a19.692308 19.692308 0 0 1 3.544616 39.069539L236.307692 531.692308H157.538462a19.692308 19.692308 0 0 1-3.544616-39.069539L157.538462 492.307692h78.76923zM866.461538 196.923077a19.692308 19.692308 0 0 1 3.544616 39.069538L866.461538 236.307692H354.461538a19.692308 19.692308 0 0 1-3.544615-39.069538L354.461538 196.923077h512zM236.307692 196.923077a19.692308 19.692308 0 0 1 3.544616 39.069538L236.307692 236.307692H157.538462a19.692308 19.692308 0 0 1-3.544616-39.069538L157.538462 196.923077h78.76923z" fill="#333333" p-id="1188"></path></svg>